<svg width="200" height="200" viewBox="0 0 200 200" fill="none" xmlns="http://www.w3.org/2000/svg">
<path fill-rule="evenodd" clip-rule="evenodd" d="M198.35 104.44C200.55 101.889 200.55 98.1113 198.35 95.56L185.147 80.245C183.793 78.6745 183.23 76.572 183.617 74.5348L187.394 54.67C188.023 51.3607 186.134 48.0894 182.954 46.9797L163.862 40.3183C161.904 39.6351 160.365 38.096 159.682 36.1381L153.02 17.0462C151.911 13.8656 148.639 11.9769 145.33 12.6061L125.465 16.3832C123.428 16.7705 121.326 16.2071 119.755 14.8531L104.44 1.64971C101.889 -0.54991 98.1114 -0.54991 95.56 1.64971L80.245 14.8531C78.6745 16.2071 76.572 16.7705 74.5349 16.3831L54.67 12.6061C51.3607 11.9769 48.0894 13.8655 46.9797 17.0462L40.3183 36.1381C39.6351 38.096 38.096 39.6351 36.1381 40.3182L17.0462 46.9797C13.8656 48.0894 11.9769 51.3607 12.6061 54.67L16.3831 74.5348C16.7705 76.572 16.2071 78.6745 14.8531 80.245L1.64972 95.5599C-0.5499 98.1113 -0.5499 101.889 1.64972 104.44L14.8531 119.755C16.2071 121.325 16.7705 123.428 16.3831 125.465L12.6061 145.33C11.9769 148.639 13.8655 151.911 17.0462 153.02L36.1381 159.682C38.096 160.365 39.6351 161.904 40.3182 163.862L46.9797 182.954C48.0894 186.134 51.3607 188.023 54.6701 187.394L74.5349 183.617C76.572 183.23 78.6745 183.793 80.245 185.147L95.56 198.35C98.1113 200.55 101.889 200.55 104.44 198.35L119.755 185.147C121.325 183.793 123.428 183.23 125.465 183.617L145.33 187.394C148.639 188.023 151.911 186.134 153.02 182.954L159.682 163.862C160.365 161.904 161.904 160.365 163.862 159.682L182.954 153.02C186.134 151.911 188.023 148.639 187.394 145.33L183.617 125.465C183.23 123.428 183.793 121.325 185.147 119.755L198.35 104.44ZM71.3901 100C71.3901 115.801 84.1992 128.61 100 128.61C115.801 128.61 128.61 115.801 128.61 100C128.61 84.1996 115.801 71.3905 100 71.3905C84.1992 71.3905 71.3901 84.1996 71.3901 100Z" fill="#3D7896"/>
<path d="M59.4396 70.0055L57.6928 69.3102L55.8209 71.8466L56.9924 73.3215L55.2822 75.639L49.323 67.307L51.3997 64.4929L61.142 67.6987L59.4396 70.0055ZM55.6395 68.4713L54.1097 67.8619C53.9446 67.7951 53.7089 67.7009 53.4027 67.5794C53.0929 67.4552 52.776 67.3258 52.4519 67.1912C52.127 67.0503 51.8624 66.932 51.6581 66.8363C51.8125 66.9997 51.999 67.2088 52.2178 67.4638C52.4356 67.7125 52.6491 67.9635 52.8581 68.2167C53.0697 68.4664 53.2439 68.6774 53.3806 68.8498L54.414 70.132L55.6395 68.4713Z" fill="white"/>
<path d="M57.4826 57.0547L60.1142 54.9262C61.2047 54.0442 62.1129 53.5771 62.8388 53.5248C63.5647 53.4726 64.1725 53.7492 64.6622 54.3546C64.9293 54.6848 65.0959 55.0139 65.1619 55.3417C65.2314 55.6668 65.2292 55.9702 65.1554 56.2518C65.085 56.5306 64.9747 56.7706 64.8245 56.9718L64.8662 57.0234C65.1144 56.9081 65.3886 56.8285 65.6889 56.7848C65.9899 56.7348 66.3035 56.7742 66.6296 56.9031C66.9564 57.0257 67.2826 57.2882 67.6081 57.6907C67.9782 58.1482 68.1798 58.6367 68.213 59.1561C68.2496 59.6728 68.1253 60.1945 67.84 60.7211C67.5519 61.2444 67.112 61.7453 66.5203 62.2238L63.5843 64.5986L57.4826 57.0547ZM61.8621 58.3009L62.4762 57.8043C62.8133 57.5316 62.995 57.2708 63.0213 57.0219C63.0448 56.7696 62.9759 56.5437 62.8145 56.3441C62.6476 56.1377 62.4419 56.0452 62.1974 56.0666C61.9535 56.0817 61.6682 56.2214 61.3414 56.4857L60.7687 56.949L61.8621 58.3009ZM63.0683 59.7921L64.3496 61.3762L65.0668 60.7961C65.4211 60.5095 65.6076 60.2335 65.6262 59.9681C65.642 59.6992 65.5567 59.4495 65.3703 59.2191C65.2618 59.0849 65.1293 58.9844 64.9728 58.9175C64.8169 58.8444 64.6375 58.8302 64.4346 58.8748C64.2289 58.916 63.9988 59.0395 63.7442 59.2454L63.0683 59.7921Z" fill="white"/>
<path d="M79.7299 48.5223C80.0361 49.2045 80.2323 49.8633 80.3185 50.4986C80.407 51.1281 80.3683 51.7226 80.2022 52.282C80.0362 52.8414 79.7297 53.3524 79.2825 53.8149C78.8336 54.2734 78.2297 54.6729 77.4708 55.0134C76.7281 55.3467 76.0362 55.5286 75.3953 55.5592C74.7566 55.5839 74.172 55.4753 73.6415 55.2333C73.1092 54.9872 72.6324 54.6216 72.2111 54.1366C71.7898 53.6516 71.4242 53.064 71.1145 52.3737C70.7015 51.4534 70.4943 50.5862 70.4927 49.7722C70.4934 48.9524 70.7293 48.2137 71.2004 47.5561C71.6697 46.8946 72.4009 46.341 73.3939 45.8954C74.403 45.4426 75.3067 45.2626 76.1048 45.3554C76.907 45.4464 77.6085 45.7669 78.2093 46.3169C78.8101 46.8668 79.317 47.602 79.7299 48.5223ZM73.6388 51.2556C73.8778 51.7884 74.144 52.2194 74.4372 52.5485C74.7303 52.8777 75.0543 53.0863 75.409 53.1744C75.7638 53.2626 76.1531 53.2115 76.5769 53.0213C77.0169 52.8239 77.3199 52.5643 77.4859 52.2425C77.6559 51.9189 77.7113 51.54 77.6523 51.1058C77.5973 50.6698 77.4502 50.1854 77.2111 49.6526C76.8525 48.8533 76.4358 48.2814 75.9611 47.9367C75.4864 47.5921 74.9241 47.5655 74.2742 47.8572C73.8423 48.051 73.5402 48.3126 73.368 48.6421C73.1998 48.9697 73.1421 49.3544 73.1949 49.7963C73.2517 50.2363 73.3997 50.7228 73.6388 51.2556Z" fill="white"/>
<path d="M92.5561 40.3618L93.4477 46.1334C93.572 46.938 93.5271 47.6612 93.3128 48.3031C93.098 48.9407 92.7094 49.4685 92.1473 49.8867C91.5844 50.3004 90.8417 50.5786 89.9191 50.7211C88.5986 50.9251 87.5384 50.7419 86.7385 50.1716C85.9386 49.6012 85.4431 48.6974 85.2519 47.46L84.3512 41.6293L86.955 41.227L87.8243 46.8544C87.929 47.5321 88.1318 48.0044 88.4327 48.2713C88.7336 48.5382 89.1311 48.6335 89.6251 48.5572C89.9793 48.5025 90.2578 48.3923 90.4605 48.2267C90.6626 48.0567 90.7916 47.8196 90.8476 47.5155C90.9079 47.2107 90.903 46.831 90.8327 46.3762L89.9654 40.762L92.5561 40.3618Z" fill="white"/>
<path d="M103.714 49.8061L101.104 49.5641L101.802 42.0374L99.4425 41.8186L99.6404 39.6842L106.962 40.3631L106.764 42.4975L104.412 42.2794L103.714 49.8061Z" fill="white"/>
<path d="M121.257 54.4677L118.897 53.3268L122.187 46.5213L120.054 45.4902L120.987 43.5602L127.607 46.7604L126.674 48.6904L124.547 47.6621L121.257 54.4677Z" fill="white"/>
<path d="M131.612 61.0009L127.095 57.4264L133.116 49.8178L137.633 53.3923L136.328 55.042L133.866 53.0942L132.919 54.2912L135.198 56.0949L133.893 57.7447L131.613 55.9409L130.477 57.3773L132.938 59.3252L131.612 61.0009Z" fill="white"/>
<path d="M144.235 62.7261C144.041 62.4846 143.816 62.3105 143.56 62.2038C143.308 62.0944 143.031 62.0499 142.73 62.0705C142.429 62.0911 142.109 62.1773 141.772 62.3292C141.44 62.4818 141.099 62.6993 140.747 62.9818C140.271 63.3641 139.919 63.7457 139.691 64.1268C139.464 64.5079 139.366 64.8875 139.397 65.2654C139.431 65.6467 139.597 66.0237 139.896 66.3963C140.168 66.7344 140.475 67.0213 140.817 67.2571C141.162 67.4962 141.528 67.7219 141.914 67.9341L140.185 69.3217C139.768 69.1062 139.386 68.8487 139.038 68.5495C138.692 68.2536 138.362 67.909 138.046 67.5157C137.387 66.6946 137.009 65.8917 136.912 65.1069C136.822 64.3228 136.967 63.5739 137.347 62.8602C137.73 62.1499 138.304 61.4873 139.07 60.8724C139.643 60.4126 140.231 60.071 140.835 59.8475C141.441 59.6274 142.043 59.5327 142.641 59.5635C143.242 59.5915 143.82 59.757 144.375 60.0601C144.937 60.3638 145.455 60.8107 145.928 61.4007C146.222 61.7664 146.488 62.1857 146.725 62.6586C146.969 63.1322 147.153 63.637 147.277 64.1729L145.165 64.8388C145.075 64.4576 144.961 64.0895 144.823 63.7346C144.686 63.3796 144.49 63.0435 144.235 62.7261Z" fill="white"/>
<path d="M146.328 80.8443L145.078 78.1617L147.629 74.8556L146.88 74.3482L143.939 75.7198L142.825 73.3319L151.619 69.2313L152.732 71.6191L148.913 73.4002C149.152 73.4107 149.398 73.4352 149.65 73.4737C149.904 73.5163 150.147 73.5595 150.377 73.6034L153.933 74.1934L155.144 76.7917L149.912 75.8561L146.328 80.8443Z" fill="white"/>
<path d="M148.51 87.4412L147.983 84.9138L157.482 82.9358L158.651 88.5493L156.592 88.9782L155.949 85.8921L154.136 86.2695L154.729 89.1153L152.669 89.5442L152.077 86.6984L148.51 87.4412Z" fill="white"/>
<path d="M154.741 104.629C153.994 104.599 153.316 104.482 152.709 104.277C152.106 104.076 151.59 103.777 151.163 103.38C150.736 102.982 150.415 102.481 150.199 101.875C149.988 101.269 149.899 100.55 149.931 99.7188C149.963 98.9054 150.108 98.2048 150.365 97.6171C150.627 97.034 150.984 96.5587 151.437 96.1911C151.894 95.8237 152.433 95.5592 153.055 95.3975C153.677 95.2358 154.366 95.1697 155.122 95.1991C156.13 95.2384 156.999 95.4384 157.728 95.7989C158.463 96.164 159.019 96.7038 159.399 97.4182C159.783 98.1327 159.953 99.0338 159.911 100.121C159.868 101.227 159.627 102.116 159.189 102.79C158.751 103.468 158.152 103.954 157.392 104.247C156.633 104.541 155.749 104.668 154.741 104.629ZM155.001 97.9573C154.417 97.9346 153.913 97.9813 153.488 98.0975C153.063 98.2138 152.732 98.4112 152.495 98.6898C152.258 98.9683 152.131 99.3397 152.113 99.8039C152.094 100.286 152.192 100.673 152.406 100.964C152.621 101.261 152.935 101.479 153.351 101.619C153.766 101.763 154.265 101.847 154.848 101.87C155.724 101.904 156.421 101.785 156.941 101.513C157.461 101.241 157.735 100.749 157.762 100.038C157.781 99.5645 157.681 99.1776 157.462 98.8769C157.244 98.5805 156.925 98.3578 156.505 98.2086C156.086 98.0638 155.585 97.9801 155.001 97.9573Z" fill="white"/>
<path d="M157.78 115.205C157.516 116.045 157.193 116.711 156.811 117.204C156.434 117.697 155.998 118.02 155.506 118.171C155.012 118.327 154.463 118.31 153.859 118.12C153.484 118.002 153.162 117.831 152.893 117.608C152.625 117.385 152.405 117.116 152.235 116.803C152.067 116.495 151.943 116.151 151.864 115.769L146.984 117.199L147.874 114.363L151.859 113.458L152.058 112.824L148.69 111.767L149.475 109.266L158.732 112.172L157.78 115.205ZM155.898 114.573L156.053 114.079L153.939 113.415L153.791 113.883C153.671 114.268 153.656 114.609 153.748 114.906C153.84 115.204 154.104 115.421 154.539 115.558C154.838 115.652 155.104 115.624 155.337 115.475C155.569 115.325 155.756 115.025 155.898 114.573Z" fill="white"/>
<path d="M145.151 135.9C145.349 135.662 145.474 135.406 145.527 135.134C145.584 134.865 145.572 134.585 145.491 134.294C145.41 134.003 145.261 133.707 145.045 133.407C144.829 133.113 144.547 132.823 144.199 132.535C143.729 132.145 143.284 131.877 142.865 131.731C142.446 131.585 142.055 131.566 141.691 131.672C141.324 131.782 140.988 132.021 140.683 132.389C140.407 132.723 140.188 133.081 140.026 133.464C139.861 133.85 139.713 134.254 139.583 134.674L137.876 133.26C138.003 132.809 138.178 132.382 138.402 131.981C138.622 131.583 138.893 131.19 139.215 130.802C139.886 129.991 140.597 129.459 141.346 129.206C142.096 128.96 142.859 128.951 143.634 129.18C144.407 129.412 145.172 129.842 145.928 130.468C146.494 130.937 146.947 131.444 147.287 131.99C147.625 132.54 147.839 133.11 147.929 133.702C148.022 134.297 147.976 134.896 147.791 135.501C147.607 136.113 147.273 136.71 146.79 137.292C146.491 137.653 146.134 137.998 145.719 138.326C145.304 138.66 144.846 138.942 144.346 139.171L143.269 137.236C143.624 137.071 143.962 136.885 144.282 136.679C144.602 136.473 144.892 136.214 145.151 135.9Z" fill="white"/>
<path d="M137.667 146.377C136.959 146.9 136.306 147.248 135.707 147.421C135.111 147.597 134.57 147.601 134.083 147.433C133.592 147.267 133.158 146.93 132.782 146.421C132.548 146.105 132.389 145.777 132.304 145.438C132.218 145.1 132.199 144.754 132.246 144.4C132.292 144.053 132.395 143.701 132.556 143.346L127.77 141.626L130.161 139.859L133.914 141.476L134.448 141.081L132.35 138.242L134.458 136.684L140.224 144.488L137.667 146.377ZM136.52 144.757L136.936 144.449L135.619 142.667L135.224 142.959C134.9 143.198 134.688 143.465 134.587 143.76C134.485 144.055 134.57 144.385 134.841 144.752C135.028 145.004 135.259 145.139 135.535 145.155C135.811 145.171 136.139 145.038 136.52 144.757Z" fill="white"/>
<path d="M118.919 146.29L120.05 147.792L122.967 146.596L122.732 144.727L125.397 143.635L126.163 153.85L122.927 155.177L116.266 147.378L118.919 146.29ZM121.369 149.575L122.36 150.89C122.467 151.033 122.619 151.236 122.818 151.499C123.018 151.766 123.222 152.041 123.429 152.324C123.633 152.613 123.798 152.852 123.923 153.04C123.876 152.82 123.825 152.544 123.77 152.213C123.713 151.887 123.661 151.562 123.614 151.237C123.563 150.914 123.524 150.643 123.496 150.424L123.279 148.792L121.369 149.575Z" fill="white"/>
<path d="M109.814 149.131L112.366 148.736L113.847 158.325L108.18 159.201L107.859 157.122L110.974 156.64L110.692 154.81L107.819 155.254L107.498 153.175L110.37 152.731L109.814 149.131Z" fill="white"/>
<path d="M97.5611 150.034L100.178 150.197L99.7102 157.741L102.075 157.888L101.942 160.027L94.6032 159.572L94.7357 157.433L97.0938 157.579L97.5611 150.034Z" fill="white"/>
<path d="M76.7529 155.207C75.6355 154.693 74.9114 154.065 74.5804 153.324C74.2454 152.58 74.2841 151.76 74.6964 150.864C74.8813 150.462 75.1171 150.103 75.4038 149.787C75.6864 149.469 76.0249 149.225 76.4193 149.056C76.8097 148.885 77.2588 148.814 77.7665 148.843C78.2702 148.87 78.8356 149.028 79.4626 149.316L80.1319 149.624L81.477 146.7L83.8585 147.796L79.8037 156.61L76.7529 155.207ZM77.6919 153.309L78.3069 153.592L79.2388 151.566L78.7685 151.349C78.5635 151.255 78.3569 151.201 78.1486 151.188C77.9385 151.179 77.7451 151.229 77.5685 151.338C77.386 151.449 77.2337 151.637 77.1117 151.902C76.9841 152.179 76.963 152.442 77.0483 152.691C77.1317 152.944 77.3463 153.15 77.6919 153.309Z" fill="white"/>
<path d="M60.4535 145.106L69.0088 139.533L71.4144 141.466L67.8049 151.013L65.5079 149.167L67.5586 144.506C67.637 144.331 67.7436 144.11 67.8782 143.844C68.0066 143.578 68.1402 143.316 68.2789 143.059C68.4142 142.799 68.5335 142.594 68.6367 142.444C68.5093 142.574 68.338 142.734 68.1227 142.925C67.9074 143.115 67.6886 143.302 67.4664 143.487C67.238 143.673 67.0449 143.821 66.8872 143.933L62.7401 146.943L60.4535 145.106Z" fill="white"/>
<path d="M60.7168 131.375L62.3279 133.443L56.365 138.089L57.821 139.957L56.1301 141.275L51.6109 135.474L53.3019 134.157L54.7539 136.021L60.7168 131.375Z" fill="white"/>
<path d="M53.4155 119.695L44.1603 122.608L43.3734 120.107L50.6092 117.83L49.4877 114.266L51.5071 113.631L53.4155 119.695Z" fill="white"/>
<path d="M49.8381 104.846L50.063 107.458L42.5319 108.106L42.7351 110.467L40.5994 110.651L39.9686 103.325L42.1042 103.141L42.3069 105.495L49.8381 104.846Z" fill="white"/>
<path d="M45.4573 89.6456C46.5735 89.8099 47.4708 90.1544 48.1493 90.6792C48.8279 91.2039 49.2974 91.8723 49.558 92.6843C49.8148 93.4913 49.8682 94.4048 49.718 95.4246L49.2608 98.5302L39.6617 97.1171L40.1508 93.7948C40.3029 92.7618 40.6091 91.9124 41.0693 91.2468C41.5295 90.5811 42.1284 90.1125 42.8661 89.841C43.6043 89.5651 44.4681 89.5 45.4573 89.6456ZM45.1529 92.3511C44.5707 92.2654 44.0777 92.2733 43.6736 92.3748C43.2659 92.4713 42.945 92.6611 42.7111 92.9441C42.4727 93.2266 42.3188 93.6041 42.2492 94.0769L42.138 94.8319L47.5153 95.6236L47.6004 95.0458C47.7164 94.2579 47.5738 93.6466 47.1727 93.2119C46.7673 92.7766 46.094 92.4896 45.1529 92.3511Z" fill="white"/>
</svg>
