<svg width="259" height="259" viewBox="0 0 259 259" fill="none" xmlns="http://www.w3.org/2000/svg">
<circle cx="129.5" cy="129.5" r="129.5" fill="white"/>
<circle cx="129.5" cy="129.5" r="105.5" fill="white"/>
<path d="M112.699 120.07H100.468V125.479C100.991 124.904 101.723 124.434 102.663 124.068C103.604 123.702 104.623 123.519 105.721 123.519C107.681 123.519 109.301 123.964 110.582 124.852C111.889 125.741 112.843 126.891 113.444 128.302C114.045 129.713 114.345 131.242 114.345 132.888C114.345 135.946 113.483 138.376 111.758 140.18C110.033 141.957 107.603 142.845 104.467 142.845C102.376 142.845 100.56 142.492 99.0178 141.787C97.4759 141.055 96.2868 140.049 95.4505 138.768C94.6142 137.488 94.1569 136.011 94.0785 134.339H100.625C100.782 135.149 101.161 135.828 101.762 136.377C102.363 136.9 103.186 137.161 104.231 137.161C105.46 137.161 106.374 136.769 106.976 135.985C107.577 135.201 107.877 134.156 107.877 132.849C107.877 131.568 107.564 130.588 106.936 129.909C106.309 129.23 105.394 128.89 104.192 128.89C103.304 128.89 102.572 129.112 101.997 129.556C101.422 129.974 101.043 130.536 100.86 131.242H94.3921V114.19H112.699V120.07ZM118.045 128.145C118.045 123.65 118.908 120.109 120.633 117.522C122.384 114.934 125.193 113.641 129.061 113.641C132.929 113.641 135.725 114.934 137.45 117.522C139.201 120.109 140.076 123.65 140.076 128.145C140.076 132.692 139.201 136.26 137.45 138.847C135.725 141.434 132.929 142.728 129.061 142.728C125.193 142.728 122.384 141.434 120.633 138.847C118.908 136.26 118.045 132.692 118.045 128.145ZM133.49 128.145C133.49 125.505 133.203 123.48 132.628 122.069C132.053 120.632 130.864 119.913 129.061 119.913C127.258 119.913 126.068 120.632 125.494 122.069C124.919 123.48 124.631 125.505 124.631 128.145C124.631 129.922 124.736 131.399 124.945 132.575C125.154 133.725 125.572 134.665 126.199 135.397C126.852 136.103 127.806 136.456 129.061 136.456C130.315 136.456 131.256 136.103 131.883 135.397C132.537 134.665 132.968 133.725 133.177 132.575C133.386 131.399 133.49 129.922 133.49 128.145ZM164.159 132.143H157.338V139.121H150.987V132.143H144.166V126.146H150.987V119.129H157.338V126.146H164.159V132.143Z" fill="#282A39"/>
<circle cx="129.187" cy="129.187" r="60.5036" stroke="#F9365F" stroke-width="0.633546" stroke-dasharray="3.17 3.17"/>
<path d="M38.8628 102.434L49.3177 107.875L48.765 110.501L40.4168 110.921L47.8673 114.766L47.3339 117.379L35.5801 118.03L36.0825 115.642L45.1201 115.5L36.9702 111.425L37.4927 108.942L46.5194 108.615L38.357 104.837L38.8628 102.434Z" fill="black"/>
<path d="M55.4283 91.3919C54.9442 92.3377 54.2777 93.0928 53.4288 93.657C52.5798 94.2212 51.6459 94.5349 50.627 94.5982C49.5985 94.6564 48.5872 94.4312 47.5931 93.9225C46.6086 93.4187 45.844 92.7351 45.2993 91.8717C44.745 91.0035 44.4483 90.06 44.4093 89.0414C44.3704 88.0227 44.5929 87.0405 45.0769 86.0946C45.5659 85.1391 46.2324 84.3841 47.0765 83.8295C47.9255 83.2653 48.8617 82.9588 49.8853 82.9102C50.9042 82.847 51.9058 83.0673 52.8903 83.5711C53.8844 84.0798 54.6586 84.7684 55.213 85.6366C55.7626 86.4903 56.0569 87.4265 56.0959 88.4451C56.1349 89.4638 55.9123 90.446 55.4283 91.3919ZM53.6186 90.4658C53.9298 89.8577 54.0688 89.2529 54.0356 88.6513C53.9928 88.0448 53.7823 87.4804 53.4041 86.958C53.0259 86.4357 52.499 86.0016 51.8234 85.6559C51.1478 85.3101 50.4924 85.1391 49.8572 85.1429C49.2123 85.1417 48.6362 85.3036 48.1288 85.6286C47.6215 85.9536 47.2123 86.4201 46.9011 87.0281C46.5899 87.6362 46.4485 88.2458 46.4767 88.857C46.5098 89.4586 46.7155 90.0206 47.0937 90.543C47.4622 91.0604 47.9843 91.492 48.6599 91.8377C49.3355 92.1834 49.9958 92.3569 50.6407 92.3581C51.2856 92.3593 51.8665 92.1998 52.3835 91.8798C52.8957 91.5452 53.3074 91.0738 53.6186 90.4658Z" fill="black"/>
<path d="M65.9979 74.8663L60.9921 73.9823L60.3089 74.8101L63.7206 77.6257L62.2714 79.3818L53.5163 72.1564L56.2284 68.8701C56.7874 68.1928 57.3848 67.7158 58.0207 67.4393C58.6482 67.1559 59.2634 67.0662 59.8664 67.1702C60.4679 67.259 61.0195 67.5104 61.5212 67.9245C62.0982 68.4006 62.4828 68.9992 62.6751 69.7201C62.8589 70.4342 62.7661 71.194 62.3965 71.9995L67.6749 72.8343L65.9979 74.8663ZM58.9919 73.7232L60.203 72.2557C60.5963 71.779 60.7768 71.3305 60.7442 70.91C60.7033 70.4826 60.478 70.0999 60.0682 69.7617C59.6669 69.4305 59.2608 69.2922 58.8502 69.3469C58.4312 69.3947 58.025 69.6569 57.6317 70.1336L56.4205 71.6011L58.9919 73.7232Z" fill="black"/>
<path d="M78.1649 62.9898L71.7725 61.6547L74.953 65.5873L73.1827 67.0191L66.0445 58.1928L67.8148 56.7611L71.0158 60.719L71.0267 54.1635L73.1637 52.4352L73.0603 59.7557L80.4031 61.1796L78.1649 62.9898Z" fill="black"/>
<path d="M89.8576 55.3913C89.1577 55.7608 88.4616 55.9751 87.7694 56.034C87.0867 56.0879 86.4635 55.9756 85.8996 55.6971C85.3357 55.4185 84.887 54.975 84.5534 54.3664L86.7107 53.2275C86.9571 53.6246 87.273 53.8747 87.6584 53.9777C88.0534 54.0757 88.4811 54.0032 88.9413 53.7602C89.4111 53.5122 89.722 53.207 89.874 52.8448C90.021 52.4729 89.9983 52.1049 89.806 51.7405C89.6491 51.4433 89.4289 51.2469 89.1455 51.1513C88.8621 51.0557 88.5535 51.0286 88.2198 51.0699C87.8906 51.0966 87.4509 51.1694 86.9006 51.2882C86.1474 51.4407 85.5166 51.5346 85.0081 51.5701C84.5042 51.591 84.0049 51.4929 83.5103 51.2759C83.0202 51.0442 82.6081 50.612 82.274 49.9792C81.9602 49.3848 81.8354 48.7886 81.8998 48.1906C81.9642 47.5926 82.2041 47.0369 82.6195 46.5233C83.0299 46.0002 83.5803 45.5563 84.2706 45.1919C85.3061 44.6452 86.2791 44.4564 87.1898 44.6254C88.105 44.7798 88.834 45.2899 89.377 46.1557L87.1622 47.325C86.9608 46.9899 86.6628 46.7855 86.2684 46.7118C85.8784 46.6234 85.4581 46.6982 85.0075 46.9361C84.6144 47.1436 84.3512 47.4114 84.2178 47.7392C84.094 48.0621 84.1333 48.4152 84.3358 48.7988C84.4775 49.0672 84.6827 49.247 84.9515 49.338C85.2248 49.4144 85.5212 49.4418 85.8408 49.4202C86.165 49.3839 86.6047 49.3112 87.16 49.2019C87.9132 49.0495 88.5466 48.9603 89.0601 48.9344C89.5736 48.9085 90.0802 49.0088 90.5799 49.2354C91.0796 49.462 91.494 49.8869 91.823 50.5101C92.1065 51.047 92.2306 51.619 92.1956 52.226C92.1605 52.833 91.9479 53.4173 91.5578 53.9788C91.1626 54.5307 90.5958 55.0016 89.8576 55.3913Z" fill="black"/>
<path d="M106.302 42.2844C106.104 41.1853 106.173 40.1595 106.508 39.2068C106.852 38.2415 107.408 37.442 108.175 36.8081C108.951 36.1617 109.873 35.7425 110.94 35.5504C112.188 35.3256 113.34 35.4489 114.394 35.92C115.448 36.3912 116.264 37.1588 116.841 38.2226L114.264 38.6865C113.912 38.1991 113.477 37.8642 112.959 37.682C112.452 37.4978 111.895 37.4605 111.287 37.57C110.636 37.6871 110.082 37.9465 109.626 38.3482C109.178 38.7372 108.86 39.2351 108.672 39.8419C108.494 40.4467 108.473 41.1225 108.607 41.8695C108.74 42.6057 108.996 43.2317 109.375 43.7473C109.763 44.2503 110.235 44.6113 110.793 44.8305C111.359 45.0371 111.967 45.0818 112.618 44.9646C113.226 44.8551 113.736 44.6257 114.146 44.2763C114.566 43.9144 114.856 43.4436 115.016 42.864L117.593 42.4001C117.425 43.6091 116.929 44.6182 116.105 45.4274C115.29 46.2241 114.253 46.7358 112.994 46.9624C111.927 47.1545 110.918 47.0883 109.967 46.7637C109.025 46.4265 108.226 45.8709 107.569 45.0969C106.922 44.3209 106.5 43.3834 106.302 42.2844Z" fill="black"/>
<path d="M132.071 45.4381C131.011 45.3796 130.05 45.0769 129.19 44.53C128.33 43.9831 127.664 43.2569 127.192 42.3514C126.722 41.4351 126.517 40.4194 126.579 39.3044C126.639 38.2002 126.954 37.224 127.522 36.3757C128.09 35.5167 128.832 34.8626 129.747 34.4136C130.662 33.9645 131.65 33.7692 132.711 33.8277C133.783 33.8867 134.744 34.1894 135.593 34.7357C136.453 35.2826 137.113 36.0139 137.573 36.9296C138.045 37.8352 138.25 38.84 138.189 39.9442C138.127 41.0592 137.812 42.0463 137.244 42.9054C136.687 43.7542 135.951 44.4031 135.036 44.8522C134.12 45.3012 133.132 45.4965 132.071 45.4381ZM132.183 43.4083C132.865 43.4459 133.475 43.3274 134.011 43.0529C134.548 42.7676 134.978 42.3462 135.302 41.7885C135.626 41.2309 135.809 40.5731 135.851 39.8154C135.892 39.0576 135.783 38.3892 135.521 37.8101C135.261 37.2203 134.879 36.7594 134.376 36.4277C133.873 36.0959 133.281 35.9113 132.599 35.8737C131.917 35.8361 131.302 35.9543 130.755 36.2281C130.218 36.5026 129.788 36.9187 129.464 37.4763C129.141 38.0232 128.959 38.6755 128.917 39.4333C128.875 40.191 128.985 40.8649 129.245 41.4547C129.506 42.0446 129.887 42.5108 130.39 42.8534C130.903 43.1857 131.501 43.3707 132.183 43.4083Z" fill="black"/>
<path d="M161.195 39.515L157.792 50.3447L155.62 49.6623L157.833 42.6183L152.719 48.7508L151.074 48.2341L150.37 40.2737L148.157 47.3177L145.985 46.6353L149.387 35.8056L151.854 36.5806L152.769 45.7152L158.743 38.7449L161.195 39.515Z" fill="black"/>
<path d="M177.45 51.4843C177.143 52.0079 176.728 52.4245 176.207 52.7344C175.694 53.0497 175.09 53.1911 174.392 53.1585C173.704 53.1315 172.958 52.8818 172.154 52.4096L170.513 51.4459L168.305 55.204L166.342 54.0509L172.092 44.2629L175.695 46.3798C176.453 46.8245 177.021 47.3343 177.4 47.9091C177.779 48.4838 177.965 49.0771 177.958 49.6889C177.96 50.3063 177.79 50.9047 177.45 51.4843ZM173 50.7756C173.542 51.0941 174.016 51.2087 174.42 51.1193C174.83 51.0207 175.167 50.747 175.431 50.2983C175.991 49.3447 175.738 48.5549 174.672 47.9289L173.116 47.0147L171.444 49.8613L173 50.7756Z" fill="black"/>
<path d="M182.181 62.403L185.043 64.8112L183.881 66.1924L179.277 62.3184L186.585 53.6324L188.327 55.0983L182.181 62.403Z" fill="black"/>
<path d="M197.11 65.9865L194.957 67.8473L197.456 70.7391L196.09 71.9193L193.591 69.0276L191.315 70.9948L194.132 74.2557L192.73 75.4678L188.423 70.4842L197.025 63.0516L201.331 68.0352L199.928 69.2474L197.11 65.9865Z" fill="black"/>
<path d="M210.858 82.0546L209.28 82.9959L207.73 80.3979L199.559 85.2711L198.393 83.3156L206.564 78.4425L205.015 75.8445L206.593 74.9032L210.858 82.0546Z" fill="black"/>
<path d="M214.025 93.0084L211.364 94.0187L212.721 97.5916L211.033 98.2324L209.676 94.6595L206.864 95.7275L208.393 99.7565L206.66 100.415L204.322 94.2571L214.95 90.2217L217.288 96.3793L215.554 97.0374L214.025 93.0084Z" fill="black"/>
<path d="M220.812 109.396C221.012 110.572 220.958 111.642 220.649 112.608C220.343 113.584 219.803 114.385 219.029 115.011C218.269 115.647 217.327 116.06 216.205 116.251C215.083 116.442 214.058 116.364 213.13 116.016C212.214 115.677 211.45 115.097 210.838 114.278C210.227 113.469 209.822 112.476 209.622 111.301L208.956 107.389L220.146 105.484L220.812 109.396ZM211.516 110.896C211.716 112.071 212.191 112.925 212.942 113.458C213.692 113.99 214.65 114.157 215.815 113.958C216.98 113.76 217.834 113.285 218.377 112.532C218.93 111.778 219.107 110.813 218.907 109.638L218.637 108.051L211.246 109.309L211.516 110.896Z" fill="black"/>
<path d="M219.138 156.208L208.683 150.766L209.236 148.14L217.584 147.72L210.134 143.875L210.667 141.262L222.421 140.612L221.918 142.999L212.881 143.141L221.031 147.216L220.508 149.699L211.482 150.026L219.644 153.805L219.138 156.208Z" fill="black"/>
<path d="M202.573 167.25C203.057 166.304 203.723 165.549 204.572 164.985C205.421 164.421 206.355 164.107 207.374 164.044C208.402 163.986 209.414 164.211 210.408 164.72C211.392 165.223 212.157 165.907 212.702 166.77C213.256 167.639 213.553 168.582 213.592 169.601C213.631 170.619 213.408 171.602 212.924 172.547C212.435 173.503 211.769 174.258 210.925 174.813C210.076 175.377 209.139 175.683 208.116 175.732C207.097 175.795 206.095 175.575 205.111 175.071C204.117 174.562 203.342 173.874 202.788 173.005C202.238 172.152 201.944 171.216 201.905 170.197C201.866 169.178 202.089 168.196 202.573 167.25ZM204.382 168.176C204.071 168.784 203.932 169.389 203.965 169.991C204.008 170.597 204.219 171.162 204.597 171.684C204.975 172.206 205.502 172.64 206.178 172.986C206.853 173.332 207.509 173.503 208.144 173.499C208.789 173.5 209.365 173.338 209.872 173.014C210.379 172.689 210.789 172.222 211.1 171.614C211.411 171.006 211.553 170.396 211.524 169.785C211.491 169.183 211.285 168.622 210.907 168.099C210.539 167.582 210.017 167.15 209.341 166.804C208.665 166.459 208.005 166.285 207.36 166.284C206.715 166.283 206.134 166.442 205.618 166.762C205.105 167.097 204.694 167.568 204.382 168.176Z" fill="black"/>
<path d="M192.003 183.775L197.009 184.659L197.692 183.831L194.28 181.016L195.73 179.26L204.485 186.485L201.773 189.772C201.214 190.449 200.616 190.926 199.98 191.202C199.353 191.486 198.738 191.575 198.135 191.471C197.533 191.383 196.981 191.131 196.48 190.717C195.903 190.241 195.518 189.642 195.326 188.921C195.142 188.207 195.235 187.448 195.604 186.642L190.326 185.807L192.003 183.775ZM199.009 184.918L197.798 186.386C197.405 186.863 197.224 187.311 197.257 187.732C197.298 188.159 197.523 188.542 197.933 188.88C198.334 189.211 198.74 189.349 199.151 189.295C199.57 189.247 199.976 188.985 200.369 188.508L201.58 187.04L199.009 184.918Z" fill="black"/>
<path d="M179.836 195.652L186.228 196.987L183.048 193.054L184.818 191.623L191.956 200.449L190.186 201.881L186.985 197.923L186.974 204.478L184.837 206.206L184.941 198.886L177.598 197.462L179.836 195.652Z" fill="black"/>
<path d="M168.143 203.25C168.843 202.881 169.539 202.667 170.231 202.608C170.914 202.554 171.537 202.666 172.101 202.945C172.665 203.223 173.114 203.667 173.447 204.275L171.29 205.414C171.043 205.017 170.727 204.767 170.342 204.664C169.947 204.566 169.519 204.638 169.059 204.881C168.589 205.129 168.278 205.435 168.126 205.797C167.979 206.169 168.002 206.537 168.195 206.901C168.351 207.198 168.572 207.395 168.855 207.49C169.138 207.586 169.447 207.613 169.781 207.572C170.11 207.545 170.55 207.472 171.1 207.353C171.853 207.201 172.484 207.107 172.992 207.071C173.496 207.051 173.996 207.149 174.49 207.366C174.98 207.597 175.392 208.03 175.726 208.662C176.04 209.257 176.165 209.853 176.101 210.451C176.036 211.049 175.796 211.605 175.381 212.118C174.971 212.641 174.42 213.085 173.73 213.45C172.694 213.996 171.721 214.185 170.811 214.016C169.896 213.862 169.166 213.352 168.624 212.486L170.838 211.317C171.04 211.652 171.338 211.856 171.732 211.93C172.122 212.018 172.542 211.943 172.993 211.705C173.386 211.498 173.649 211.23 173.783 210.902C173.907 210.58 173.867 210.226 173.665 209.843C173.523 209.574 173.318 209.395 173.049 209.304C172.776 209.227 172.479 209.2 172.16 209.221C171.836 209.258 171.396 209.33 170.84 209.44C170.087 209.592 169.454 209.681 168.94 209.707C168.427 209.733 167.92 209.633 167.421 209.406C166.921 209.18 166.507 208.755 166.177 208.131C165.894 207.595 165.77 207.023 165.805 206.416C165.84 205.809 166.053 205.224 166.443 204.663C166.838 204.111 167.405 203.64 168.143 203.25Z" fill="black"/>
<path d="M151.698 216.357C151.896 217.456 151.827 218.482 151.492 219.434C151.148 220.4 150.592 221.199 149.825 221.833C149.049 222.479 148.128 222.899 147.061 223.091C145.812 223.315 144.661 223.192 143.607 222.721C142.552 222.25 141.737 221.482 141.16 220.419L143.737 219.955C144.089 220.442 144.524 220.777 145.041 220.959C145.548 221.143 146.106 221.181 146.714 221.071C147.365 220.954 147.918 220.695 148.375 220.293C148.823 219.904 149.141 219.406 149.329 218.799C149.506 218.194 149.528 217.519 149.393 216.772C149.261 216.035 149.005 215.409 148.626 214.894C148.238 214.391 147.765 214.03 147.208 213.811C146.642 213.604 146.033 213.559 145.383 213.677C144.774 213.786 144.265 214.015 143.854 214.365C143.434 214.727 143.145 215.198 142.985 215.777L140.408 216.241C140.576 215.032 141.071 214.023 141.895 213.214C142.71 212.417 143.747 211.905 145.006 211.679C146.073 211.487 147.082 211.553 148.033 211.877C148.975 212.215 149.775 212.77 150.432 213.544C151.078 214.32 151.5 215.258 151.698 216.357Z" fill="black"/>
<path d="M125.929 213.204C126.99 213.262 127.951 213.565 128.811 214.112C129.671 214.658 130.337 215.385 130.809 216.29C131.279 217.206 131.484 218.222 131.422 219.337C131.362 220.441 131.047 221.418 130.479 222.266C129.911 223.125 129.169 223.779 128.254 224.228C127.339 224.677 126.351 224.872 125.29 224.814C124.218 224.755 123.257 224.452 122.408 223.906C121.548 223.359 120.888 222.628 120.428 221.712C119.956 220.806 119.751 219.802 119.812 218.697C119.873 217.582 120.188 216.595 120.757 215.736C121.314 214.887 122.05 214.238 122.965 213.789C123.881 213.34 124.869 213.145 125.929 213.204ZM125.818 215.233C125.136 215.196 124.526 215.314 123.99 215.589C123.453 215.874 123.023 216.295 122.699 216.853C122.375 217.411 122.192 218.068 122.15 218.826C122.109 219.584 122.218 220.252 122.48 220.831C122.74 221.421 123.122 221.882 123.625 222.214C124.128 222.546 124.72 222.73 125.402 222.768C126.084 222.805 126.699 222.687 127.246 222.413C127.782 222.139 128.213 221.723 128.537 221.165C128.86 220.618 129.042 219.966 129.084 219.208C129.126 218.451 129.016 217.777 128.756 217.187C128.495 216.597 128.114 216.131 127.611 215.788C127.098 215.456 126.5 215.271 125.818 215.233Z" fill="black"/>
<path d="M96.8064 219.127L100.209 208.297L102.381 208.979L100.168 216.023L105.282 209.891L106.927 210.408L107.631 218.368L109.844 211.324L112.016 212.006L108.614 222.836L106.147 222.061L105.232 212.926L99.2578 219.897L96.8064 219.127Z" fill="black"/>
<path d="M80.5509 207.157C80.8584 206.634 81.2729 206.217 81.7944 205.907C82.3065 205.592 82.9114 205.451 83.609 205.483C84.2973 205.51 85.0434 205.76 85.8474 206.232L87.488 207.196L89.6955 203.438L91.6587 204.591L85.9094 214.379L82.3056 212.262C81.5483 211.817 80.9802 211.307 80.601 210.733C80.2219 210.158 80.036 209.564 80.0433 208.953C80.0413 208.335 80.2105 207.737 80.5509 207.157ZM85.0007 207.866C84.4585 207.548 83.9852 207.433 83.5806 207.522C83.1706 207.621 82.8338 207.895 82.5702 208.343C82.0101 209.297 82.263 210.087 83.3287 210.713L84.8852 211.627L86.5573 208.78L85.0007 207.866Z" fill="black"/>
<path d="M75.8194 196.239L72.9573 193.83L74.1195 192.449L78.7238 196.323L71.4154 205.009L69.6733 203.543L75.8194 196.239Z" fill="black"/>
<path d="M60.8905 192.655L63.0439 190.794L60.5451 187.903L61.911 186.722L64.4098 189.614L66.6863 187.647L63.8685 184.386L65.2713 183.174L69.5777 188.157L60.9764 195.59L56.6699 190.606L58.0727 189.394L60.8905 192.655Z" fill="black"/>
<path d="M47.1428 176.587L48.7211 175.645L50.2705 178.243L58.4415 173.37L59.6078 175.325L51.4368 180.199L52.9862 182.797L51.4078 183.738L47.1428 176.587Z" fill="black"/>
<path d="M43.9764 165.633L46.6371 164.623L45.2804 161.05L46.968 160.409L48.3247 163.982L51.1374 162.914L49.6076 158.885L51.3408 158.227L53.6789 164.385L43.0514 168.42L40.7133 162.262L42.4466 161.604L43.9764 165.633Z" fill="black"/>
<path d="M37.1888 149.246C36.9887 148.07 37.0429 146.999 37.3515 146.034C37.6583 145.058 38.1983 144.257 38.9715 143.63C39.7322 142.995 40.6737 142.582 41.7959 142.391C42.9182 142.2 43.9434 142.278 44.8714 142.626C45.787 142.965 46.5509 143.544 47.1634 144.364C47.7739 145.173 48.1793 146.165 48.3794 147.341L49.0453 151.253L37.8547 153.158L37.1888 149.246ZM46.4852 147.746C46.2851 146.57 45.8098 145.716 45.0594 145.184C44.3089 144.652 43.3512 144.485 42.1862 144.683C41.0211 144.882 40.1672 145.357 39.6244 146.109C39.0709 146.863 38.8942 147.828 39.0943 149.004L39.3644 150.591L46.7554 149.333L46.4852 147.746Z" fill="black"/>
</svg>
